#Comment line ignore any data following # character 
#Hierarchical Translation and Rotation (.htr) file 
[Header]	
#Header keywords are followed by a single value 
FileType HTR		#Single word string
DataType HTRS		#Translation followed by rotation and scale data
FileVersion 1		#integer
NumSegments 84		#integer
NumFrames 2		#integer
DataFrameRate 30		#integer, data frame rate in this file
EulerRotationOrder ZYX
CalibrationUnits mm
RotationUnits Degrees
GlobalAxisofGravity Y
BoneLengthAxis Y
ScaleFactor 1.00
[SegmentNames&Hierarchy]
#CHILD	PARENT
MASTER GLOBAL
root MASTER
chest root
L_mid_tent01 root
R_mid_tent01 root
spine01 root
Bip01_Neck chest
L_humerus chest
R_humerus chest
weapon_bone chest
Bip01_Head Bip01_Neck
eye_left_bone Bip01_Head
eye_right_bone Bip01_Head
L_forearm L_humerus
L_front_hand L_forearm
L_weapon_bone L_forearm
L_front_hand01_01 L_front_hand
L_front_hand02_01 L_front_hand
L_front_hand03_01 L_front_hand
L_front_hand01_02 L_front_hand01_01
L_front_hand02_02 L_front_hand02_01
L_front_hand03_02 L_front_hand03_01
R_forearm R_humerus
R_front_hand R_forearm
R_weapon_bone R_forearm
R_front_hand01_01 R_front_hand
R_front_hand02_01 R_front_hand
R_front_hand03_01 R_front_hand
R_front_hand01_02 R_front_hand01_01
R_front_hand02_02 R_front_hand02_01
R_front_hand03_02 R_front_hand03_01
null_rope01_connect L_mid_tent01
Rope1_Seg01 null_rope01_connect
Rope1_Seg02 Rope1_Seg01
Rope1_Seg03 Rope1_Seg02
Rope1_Seg04 Rope1_Seg03
Rope1_Seg05 Rope1_Seg04
Rope1_Seg06 Rope1_Seg05
Rope1_Seg07 Rope1_Seg06
Rope1_Seg09 Rope1_Seg07
L_mid_hand01 Rope1_Seg09
L_mid_hand02 Rope1_Seg09
L_mid_hand03 Rope1_Seg09
null_rope02_connect R_mid_tent01
Rope2_Seg01 null_rope02_connect
Rope2_Seg02 Rope2_Seg01
Rope2_Seg03 Rope2_Seg02
Rope2_Seg04 Rope2_Seg03
Rope2_Seg05 Rope2_Seg04
Rope2_Seg06 Rope2_Seg05
Rope2_Seg07 Rope2_Seg06
Rope2_Seg09 Rope2_Seg07
R_mid_hand01 Rope2_Seg09
R_mid_hand02 Rope2_Seg09
R_mid_hand03 Rope2_Seg09
spine02 spine01
spine03 spine02
pelvis spine03
null_rope03_connect pelvis
null_rope04_connect pelvis
Rope3_Seg01 null_rope03_connect
Rope3_Seg02 Rope3_Seg01
Rope3_Seg03 Rope3_Seg02
Rope3_Seg04 Rope3_Seg03
Rope3_Seg05 Rope3_Seg04
Rope3_Seg06 Rope3_Seg05
Rope3_Seg07 Rope3_Seg06
Rope3_Seg08 Rope3_Seg07
Rope3_Seg09 Rope3_Seg08
R_rear_hand01 Rope3_Seg09
R_rear_hand02 Rope3_Seg09
R_rear_hand03 Rope3_Seg09
Rope4_Seg01 null_rope04_connect
Rope4_Seg02 Rope4_Seg01
Rope4_Seg03 Rope4_Seg02
Rope4_Seg04 Rope4_Seg03
Rope4_Seg05 Rope4_Seg04
Rope4_Seg06 Rope4_Seg05
Rope4_Seg07 Rope4_Seg06
Rope4_Seg08 Rope4_Seg07
Rope4_Seg09 Rope4_Seg08
L_rear_hand01 Rope4_Seg09
L_rear_hand02 Rope4_Seg09
L_rear_hand03 Rope4_Seg09
[BasePosition]
#SegmentName Tx, Ty, Tz, Rx, Ry, Rz, BoneLength
MASTER 0.000000 0.000000 0.000000 -90.000000 0.000000 0.000000 10.000000 
root 0.000000 0.000000 0.000000 0.000000 0.000000 0.000000 10.000000 
chest 0.000000 0.000000 0.000000 0.000000 0.000000 0.000000 10.000000 
L_mid_tent01 0.000000 0.000000 0.000000 0.000000 0.000000 0.000000 10.000000 
R_mid_tent01 0.000000 0.000000 0.000000 0.000000 0.000000 0.000000 10.000000 
spine01 0.000000 0.000000 0.000000 0.000000 0.000000 0.000000 10.000000 
Bip01_Neck 0.000000 0.000000 0.000000 0.000000 0.000000 0.000000 10.000000 
L_humerus 0.000000 0.000000 0.000000 0.000000 0.000000 0.000000 10.000000 
R_humerus 0.000000 0.000000 0.000000 0.000000 0.000000 0.000000 10.000000 
weapon_bone 0.000000 0.000000 0.000000 0.000000 0.000000 0.000000 10.000000 
Bip01_Head 0.000000 0.000000 0.000000 0.000000 0.000000 0.000000 10.000000 
eye_left_bone 0.000000 0.000000 0.000000 0.000000 0.000000 0.000000 10.000000 
eye_right_bone 0.000000 0.000000 0.000000 0.000000 0.000000 0.000000 10.000000 
L_forearm 0.000000 0.000000 0.000000 0.000000 0.000000 0.000000 10.000000 
L_front_hand 0.000000 0.000000 0.000000 0.000000 0.000000 0.000000 10.000000 
L_weapon_bone 0.000000 0.000000 0.000000 0.000000 0.000000 0.000000 10.000000 
L_front_hand01_01 0.000000 0.000000 0.000000 0.000000 0.000000 0.000000 10.000000 
L_front_hand02_01 0.000000 0.000000 0.000000 0.000000 0.000000 0.000000 10.000000 
L_front_hand03_01 0.000000 0.000000 0.000000 0.000000 0.000000 0.000000 10.000000 
L_front_hand01_02 0.000000 0.000000 0.000000 0.000000 0.000000 0.000000 10.000000 
L_front_hand02_02 0.000000 0.000000 0.000000 0.000000 0.000000 0.000000 10.000000 
L_front_hand03_02 0.000000 0.000000 0.000000 0.000000 0.000000 0.000000 10.000000 
R_forearm 0.000000 0.000000 0.000000 0.000000 0.000000 0.000000 10.000000 
R_front_hand 0.000000 0.000000 0.000000 0.000000 0.000000 0.000000 10.000000 
R_weapon_bone 0.000000 0.000000 0.000000 0.000000 0.000000 0.000000 10.000000 
R_front_hand01_01 0.000000 0.000000 0.000000 0.000000 0.000000 0.000000 10.000000 
R_front_hand02_01 0.000000 0.000000 0.000000 0.000000 0.000000 0.000000 10.000000 
R_front_hand03_01 0.000000 0.000000 0.000000 0.000000 0.000000 0.000000 10.000000 
R_front_hand01_02 0.000000 0.000000 0.000000 0.000000 0.000000 0.000000 10.000000 
R_front_hand02_02 0.000000 0.000000 0.000000 0.000000 0.000000 0.000000 10.000000 
R_front_hand03_02 0.000000 0.000000 0.000000 0.000000 0.000000 0.000000 10.000000 
null_rope01_connect 0.000000 0.000000 0.000000 0.000000 0.000000 0.000000 10.000000 
Rope1_Seg01 0.000000 0.000000 0.000000 0.000000 0.000000 0.000000 10.000000 
Rope1_Seg02 0.000000 0.000000 0.000000 0.000000 0.000000 0.000000 10.000000 
Rope1_Seg03 0.000000 0.000000 0.000000 0.000000 0.000000 0.000000 10.000000 
Rope1_Seg04 0.000000 0.000000 0.000000 0.000000 0.000000 0.000000 10.000000 
Rope1_Seg05 0.000000 0.000000 0.000000 0.000000 0.000000 0.000000 10.000000 
Rope1_Seg06 0.000000 0.000000 0.000000 0.000000 0.000000 0.000000 10.000000 
Rope1_Seg07 0.000000 0.000000 0.000000 0.000000 0.000000 0.000000 10.000000 
Rope1_Seg09 0.000000 0.000000 0.000000 0.000000 0.000000 0.000000 10.000000 
L_mid_hand01 0.000000 0.000000 0.000000 0.000000 0.000000 0.000000 10.000000 
L_mid_hand02 0.000000 0.000000 0.000000 0.000000 0.000000 0.000000 10.000000 
L_mid_hand03 0.000000 0.000000 0.000000 0.000000 0.000000 0.000000 10.000000 
null_rope02_connect 0.000000 0.000000 0.000000 0.000000 0.000000 0.000000 10.000000 
Rope2_Seg01 0.000000 0.000000 0.000000 0.000000 0.000000 0.000000 10.000000 
Rope2_Seg02 0.000000 0.000000 0.000000 0.000000 0.000000 0.000000 10.000000 
Rope2_Seg03 0.000000 0.000000 0.000000 0.000000 0.000000 0.000000 10.000000 
Rope2_Seg04 0.000000 0.000000 0.000000 0.000000 0.000000 0.000000 10.000000 
Rope2_Seg05 0.000000 0.000000 0.000000 0.000000 0.000000 0.000000 10.000000 
Rope2_Seg06 0.000000 0.000000 0.000000 0.000000 0.000000 0.000000 10.000000 
Rope2_Seg07 0.000000 0.000000 0.000000 0.000000 0.000000 0.000000 10.000000 
Rope2_Seg09 0.000000 0.000000 0.000000 0.000000 0.000000 0.000000 10.000000 
R_mid_hand01 0.000000 0.000000 0.000000 0.000000 0.000000 0.000000 10.000000 
R_mid_hand02 0.000000 0.000000 0.000000 0.000000 0.000000 0.000000 10.000000 
R_mid_hand03 0.000000 0.000000 0.000000 0.000000 0.000000 0.000000 10.000000 
spine02 0.000000 0.000000 0.000000 0.000000 0.000000 0.000000 10.000000 
spine03 0.000000 0.000000 0.000000 0.000000 0.000000 0.000000 10.000000 
pelvis 0.000000 0.000000 0.000000 0.000000 0.000000 0.000000 10.000000 
null_rope03_connect 0.000000 0.000000 0.000000 0.000000 0.000000 0.000000 10.000000 
null_rope04_connect 0.000000 0.000000 0.000000 0.000000 0.000000 0.000000 10.000000 
Rope3_Seg01 0.000000 0.000000 0.000000 0.000000 0.000000 0.000000 10.000000 
Rope3_Seg02 0.000000 0.000000 0.000000 0.000000 0.000000 0.000000 10.000000 
Rope3_Seg03 0.000000 0.000000 0.000000 0.000000 0.000000 0.000000 10.000000 
Rope3_Seg04 0.000000 0.000000 0.000000 0.000000 0.000000 0.000000 10.000000 
Rope3_Seg05 0.000000 0.000000 0.000000 0.000000 0.000000 0.000000 10.000000 
Rope3_Seg06 0.000000 0.000000 0.000000 0.000000 0.000000 0.000000 10.000000 
Rope3_Seg07 0.000000 0.000000 0.000000 0.000000 0.000000 0.000000 10.000000 
Rope3_Seg08 0.000000 0.000000 0.000000 0.000000 0.000000 0.000000 10.000000 
Rope3_Seg09 0.000000 0.000000 0.000000 0.000000 0.000000 0.000000 10.000000 
R_rear_hand01 0.000000 0.000000 0.000000 0.000000 0.000000 0.000000 10.000000 
R_rear_hand02 0.000000 0.000000 0.000000 0.000000 0.000000 0.000000 10.000000 
R_rear_hand03 0.000000 0.000000 0.000000 0.000000 0.000000 0.000000 10.000000 
Rope4_Seg01 0.000000 0.000000 0.000000 0.000000 0.000000 0.000000 10.000000 
Rope4_Seg02 0.000000 0.000000 0.000000 0.000000 0.000000 0.000000 10.000000 
Rope4_Seg03 0.000000 0.000000 0.000000 0.000000 0.000000 0.000000 10.000000 
Rope4_Seg04 0.000000 0.000000 0.000000 0.000000 0.000000 0.000000 10.000000 
Rope4_Seg05 0.000000 0.000000 0.000000 0.000000 0.000000 0.000000 10.000000 
Rope4_Seg06 0.000000 0.000000 0.000000 0.000000 0.000000 0.000000 10.000000 
Rope4_Seg07 0.000000 0.000000 0.000000 0.000000 0.000000 0.000000 10.000000 
Rope4_Seg08 0.000000 0.000000 0.000000 0.000000 0.000000 0.000000 10.000000 
Rope4_Seg09 0.000000 0.000000 0.000000 0.000000 0.000000 0.000000 10.000000 
L_rear_hand01 0.000000 0.000000 0.000000 0.000000 0.000000 0.000000 10.000000 
L_rear_hand02 0.000000 0.000000 0.000000 0.000000 0.000000 0.000000 10.000000 
L_rear_hand03 0.000000 0.000000 0.000000 0.000000 0.000000 0.000000 10.000000 
#Beginning of Data. Separated by tabs
#Fr	Tx	Ty	Tz	Rx	Ry	Rz	SF
[MASTER]
130 -97.512817 -9.969788 -1233.149414 0.001346 0.001923 -20.001186 1237.039063
131 -97.512817 -9.969788 -1233.149414 0.001346 0.001923 -20.001186 1237.039063
[root]
130 112.648140 484.688141 2155.489014 -65.109596 -51.754631 -117.633369 2212.180908
131 112.648140 484.688141 2155.489014 -65.109596 -51.754631 -117.633369 2212.180908
[chest]
130 -84.512650 -34.090519 0.000000 -7.354864 0.147573 160.527786 91.129311
131 -84.512650 -34.090519 0.000000 -7.354864 0.147573 160.527786 91.129311
[L_mid_tent01]
130 27.298697 22.179451 -249.918793 51.530567 62.393261 144.513046 252.381744
131 27.298697 22.179451 -249.918793 51.536911 62.372715 144.517090 252.381744
[R_mid_tent01]
130 23.228794 24.509907 226.238495 29.492598 -62.071899 -144.891953 228.744751
131 23.228794 24.509907 226.238495 29.492598 -62.071899 -144.891953 228.744751
[spine01]
130 -0.361383 -0.195265 0.000000 -0.000001 -0.000007 22.052340 0.410763
131 -0.361383 -0.195265 0.000000 -0.000001 -0.000007 22.052340 0.410763
[Bip01_Neck]
130 165.484543 71.581718 0.000119 176.643677 -1.657967 43.431911 180.302734
131 165.484543 71.581718 0.000119 176.643677 -1.657967 43.431911 180.302734
[L_humerus]
130 -13.983130 -135.272980 -120.471481 178.964996 1.892241 -146.979980 181.680161
131 -13.983130 -135.272980 -120.471481 178.963211 1.894438 -146.978210 181.680161
[R_humerus]
130 -13.983309 -135.273102 125.287651 176.357590 6.146129 -145.149719 184.909012
131 -13.983309 -135.273102 125.287651 176.360367 6.142107 -145.146149 184.909012
[weapon_bone]
130 235.964890 -300.705902 0.000000 0.000000 -89.951546 -128.212341 382.234833
131 235.964890 -300.705902 0.000000 0.000000 -89.951546 -128.212341 382.234833
[Bip01_Head]
130 174.963211 149.913635 29.581434 2.404900 1.829640 -43.311592 232.295670
131 174.963211 149.913635 29.581432 2.404900 1.829640 -43.311596 232.295670
[eye_left_bone]
130 -24.626970 125.451866 -64.772606 0.000000 -90.000000 -99.840431 143.318359
131 -24.626970 125.451866 -64.772606 0.000000 -90.000000 -99.840431 143.318359
[eye_right_bone]
130 -24.626970 125.451866 64.327362 0.000000 -89.965736 80.156380 143.117676
131 -24.626970 125.451866 64.327362 0.000000 -89.965736 80.156380 143.117676
[L_forearm]
130 322.776093 0.000000 -0.000119 0.001130 -0.002057 -147.582291 322.776093
131 322.776093 0.000000 -0.000119 0.001130 -0.002057 -147.582291 322.776093
[L_front_hand]
130 241.149185 -0.042021 -3.300071 -174.027542 -1.836624 -27.420773 241.171753
131 241.149185 -0.042021 -3.300071 -175.133682 -1.835498 -27.420792 241.171753
[L_weapon_bone]
130 156.183838 0.000000 0.000000 0.000014 0.000007 0.000001 156.183838
131 156.183838 0.000000 0.000000 0.000014 0.000007 0.000001 156.183838
[L_front_hand01_01]
130 86.095154 20.947098 -0.655860 -0.366594 -0.477154 75.385574 88.609184
131 86.095154 20.947098 -0.655860 -0.366594 -0.477154 75.385582 88.609184
[L_front_hand02_01]
130 86.935165 -11.437475 24.513514 154.399796 -59.883835 -61.369587 91.046425
131 86.935165 -11.437475 24.513514 154.399796 -59.883835 -61.369587 91.046425
[L_front_hand03_01]
130 86.637497 -14.123976 -20.424902 -153.913849 58.118122 -62.702866 90.126129
131 86.637497 -14.123976 -20.424902 -153.913849 58.118130 -62.702866 90.126129
[L_front_hand01_02]
130 71.020905 -0.000179 0.000030 0.000334 -0.002323 -106.379684 71.020905
131 71.020905 -0.000179 0.000030 0.000334 -0.002323 -106.379684 71.020905
[L_front_hand02_02]
130 71.020927 -0.000119 0.000060 0.000334 -0.002323 -106.379684 71.020927
131 71.020927 -0.000119 0.000060 0.000334 -0.002323 -106.379684 71.020927
[L_front_hand03_02]
130 71.020905 -0.000060 0.000060 0.000334 -0.002323 -106.379684 71.020905
131 71.020905 -0.000060 0.000060 0.000334 -0.002323 -106.379684 71.020905
[R_forearm]
130 322.776428 -0.000060 0.000030 0.152047 0.148401 -134.869171 322.776428
131 322.776428 -0.000060 0.000030 0.162565 0.135511 -130.371872 322.776428
[R_front_hand]
130 238.847015 -0.006795 2.210259 -6.845355 -10.645304 -26.313234 238.857239
131 238.847015 -0.006795 2.210259 -2.627476 -10.645465 -26.312508 238.857239
[R_weapon_bone]
130 155.664093 0.002503 -0.000030 0.003487 0.001180 -90.988930 155.664078
131 155.664093 0.002503 -0.000030 0.003487 0.001180 -90.988930 155.664078
[R_front_hand01_01]
130 87.624611 14.231146 22.918642 -154.633499 -59.950619 61.746044 91.683487
131 87.624611 14.231146 22.918642 -154.633484 -59.950607 61.746033 91.683487
[R_front_hand02_01]
130 89.356956 14.367283 -19.491137 154.602661 58.302849 63.744389 92.579636
131 89.356956 14.367283 -19.491137 154.602661 58.302856 63.744389 92.579636
[R_front_hand03_01]
130 87.286232 -22.307278 -0.143439 0.162155 -0.423168 -75.767921 90.091743
131 87.286232 -22.307278 -0.143439 0.162155 -0.423168 -75.767906 90.091743
[R_front_hand01_02]
130 71.020905 0.000060 0.000119 0.002323 -0.000334 106.381714 71.020905
131 71.020905 0.000060 0.000119 0.002323 -0.000334 106.381714 71.020905
[R_front_hand02_02]
130 71.020844 -0.000030 -0.000119 0.002323 -0.000334 106.381714 71.020836
131 71.020844 -0.000030 -0.000119 0.002323 -0.000334 106.381714 71.020836
[R_front_hand03_02]
130 71.020905 0.000000 0.000030 0.002323 -0.000334 106.381714 71.020905
131 71.020905 0.000000 0.000030 0.002323 -0.000334 106.381714 71.020905
[null_rope01_connect]
130 328.732483 0.000000 -0.000238 -117.269730 -0.663689 130.607635 328.732483
131 328.732483 0.000000 -0.000238 -117.259720 -0.667412 130.589767 328.732483
[Rope1_Seg01]
130 -0.000057 0.000000 0.000000 -53.485466 40.881195 102.242035 0.000057
131 -0.000056 0.000000 0.000000 -53.456005 40.865822 102.256226 0.000056
[Rope1_Seg02]
130 139.999863 -0.000179 0.000000 -9.383466 3.918612 8.773319 139.999863
131 139.999863 -0.000179 0.000000 -9.381620 3.924042 8.780406 139.999863
[Rope1_Seg03]
130 139.999924 0.000060 -0.000060 -10.876296 4.137061 16.385893 139.999924
131 139.999924 0.000060 -0.000060 -10.883204 4.146847 16.389879 139.999924
[Rope1_Seg04]
130 139.999924 -0.000060 -0.000119 -7.949036 -0.797116 28.765923 139.999924
131 139.999924 -0.000060 -0.000119 -7.946609 -0.787091 28.771975 139.999924
[Rope1_Seg05]
130 139.999832 0.000119 -0.000060 -0.941994 0.900264 22.516390 139.999832
131 139.999832 0.000119 -0.000060 -0.938512 0.909573 22.507946 139.999832
[Rope1_Seg06]
130 139.999954 0.000119 -0.000060 1.826893 5.320295 11.195643 139.999954
131 139.999954 0.000119 -0.000060 1.826101 5.313561 11.192981 139.999954
[Rope1_Seg07]
130 139.999985 0.000060 0.000000 1.463756 2.208098 7.681981 139.999985
131 139.999985 0.000060 0.000000 1.463396 2.203755 7.678608 139.999985
[Rope1_Seg09]
130 121.602913 0.000119 -0.000089 -89.793175 -1.359789 0.847147 121.602913
131 121.602913 0.000119 -0.000089 -89.793175 -1.359789 0.847147 121.602913
[L_mid_hand01]
130 103.859421 1.038730 8.195221 130.544373 -67.584534 -38.866943 104.187431
131 103.859421 1.038730 8.195221 130.544373 -67.584534 -38.866943 104.187431
[L_mid_hand02]
130 105.572853 -4.139662 -10.864139 -168.923172 43.409309 -73.498886 106.211075
131 105.572853 -4.139662 -10.864139 -168.923172 43.409309 -73.498886 106.211075
[L_mid_hand03]
130 104.641464 17.579376 -3.913581 -6.012627 17.808174 74.893669 106.179977
131 104.641464 17.579376 -3.913581 -6.012627 17.808174 74.893669 106.179977
[null_rope02_connect]
130 328.732849 0.000179 -0.000119 -95.537643 0.841558 -4.719750 328.732849
131 328.732849 0.000179 -0.000119 -95.537643 0.841558 -4.719750 328.732849
[Rope2_Seg01]
130 0.000057 0.000000 0.000000 89.529716 13.491343 24.344297 0.000057
131 0.000056 0.000000 0.000000 89.489105 13.508233 24.242344 0.000056
[Rope2_Seg02]
130 139.999741 -0.000060 -0.000119 -3.938973 -6.972832 -14.750382 139.999756
131 139.999741 -0.000060 -0.000119 -3.968588 -6.964489 -14.805588 139.999756
[Rope2_Seg03]
130 140.000107 0.000030 0.000000 -4.997356 -9.605300 -23.865252 140.000107
131 140.000107 0.000030 0.000000 -5.007239 -9.532797 -23.858168 140.000107
[Rope2_Seg04]
130 139.999802 0.000000 -0.000060 -3.663119 -6.424837 -23.580448 139.999802
131 139.999802 0.000000 -0.000060 -3.641096 -6.310219 -23.450100 139.999802
[Rope2_Seg05]
130 139.999985 -0.000060 0.000119 -0.766422 3.670434 -6.852676 139.999985
131 139.999985 -0.000060 0.000119 -0.762406 3.650326 -6.857827 139.999985
[Rope2_Seg06]
130 139.999893 -0.000030 -0.000119 -0.179419 4.015881 -3.379022 139.999893
131 139.999893 -0.000030 -0.000119 -0.180386 3.964315 -3.433763 139.999893
[Rope2_Seg07]
130 139.999893 0.000060 -0.000060 0.054801 1.859329 -3.757072 139.999893
131 139.999893 0.000060 -0.000060 0.057229 1.840680 -3.774728 139.999893
[Rope2_Seg09]
130 121.338966 0.000089 -0.000060 33.793236 -1.359788 -0.847141 121.338966
131 121.338966 0.000089 -0.000060 33.793236 -1.359788 -0.847141 121.338966
[R_mid_hand01]
130 104.680779 11.144459 -10.335981 -16.212063 45.237247 70.462852 105.778534
131 104.680779 11.144459 -10.335981 -16.212063 45.237247 70.462852 105.778534
[R_mid_hand02]
130 104.070427 2.443552 8.231699 49.067368 -67.749771 39.286453 104.424065
131 104.070427 2.443552 8.231699 49.067368 -67.749771 39.286453 104.424065
[R_mid_hand03]
130 106.028137 -11.221827 -5.996406 -177.101105 15.551026 -76.585571 106.788818
131 106.028137 -11.221827 -5.996406 -177.101105 15.551026 -76.585571 106.788818
[spine02]
130 129.756927 0.001550 0.000119 0.457055 -4.034145 -14.320457 129.756927
131 129.756927 0.001550 0.000119 0.454854 -4.034404 -14.288276 129.756927
[spine03]
130 78.613892 0.081673 -4.899015 1.955052 3.801726 17.354721 78.766426
131 78.613892 0.081675 -4.899015 1.953761 3.802388 17.334890 78.766426
[pelvis]
130 169.435242 0.051022 0.000000 -0.066000 -0.178884 15.870800 169.435257
131 169.435242 0.051022 0.000000 -0.065792 -0.178928 15.829976 169.435257
[null_rope03_connect]
130 -1.257226 -2.466202 137.391083 -57.546749 -59.228252 165.099167 137.418976
131 -1.257226 -2.466202 137.391083 -57.550869 -59.226997 165.131165 137.418976
[null_rope04_connect]
130 -1.259640 -2.480268 -137.844437 -57.546749 -59.228252 165.099167 137.872513
131 -1.259640 -2.480268 -137.844437 -57.550869 -59.226997 165.131165 137.872513
[Rope3_Seg01]
130 0.000000 0.000096 0.000000 27.484081 -61.961395 -80.096321 0.000096
131 0.000000 0.000096 0.000000 27.480581 -61.983887 -80.085091 0.000096
[Rope3_Seg02]
130 139.999924 -0.000119 0.000060 -11.195675 29.304455 -15.695333 139.999924
131 139.999924 -0.000119 0.000060 -11.199142 29.306545 -15.703770 139.999924
[Rope3_Seg03]
130 139.999924 -0.000119 0.000119 -1.517990 19.992800 -1.878984 139.999924
131 139.999924 -0.000119 0.000119 -1.521016 20.005386 -1.887523 139.999924
[Rope3_Seg04]
130 139.999924 0.000119 0.000000 -3.096795 23.209558 -16.639469 139.999924
131 139.999924 0.000119 0.000000 -3.096152 23.208307 -16.637302 139.999924
[Rope3_Seg05]
130 139.999924 -0.000238 0.000060 -9.837987 30.828592 -30.359470 139.999924
131 139.999924 -0.000238 0.000060 -9.838156 30.829193 -30.360264 139.999924
[Rope3_Seg06]
130 139.999893 -0.000119 -0.000060 -1.505599 11.030591 -8.360113 139.999893
131 139.999893 -0.000119 -0.000060 -1.506016 11.032238 -8.361566 139.999893
[Rope3_Seg07]
130 139.999771 0.000060 -0.000119 -0.245996 5.315321 -3.839893 139.999771
131 139.999771 0.000060 -0.000119 -0.246023 5.315701 -3.840201 139.999771
[Rope3_Seg08]
130 139.999985 -0.000060 0.000000 0.181807 2.751282 -1.975873 139.999985
131 139.999985 -0.000060 0.000000 0.181802 2.751442 -1.975952 139.999985
[Rope3_Seg09]
130 90.185997 -0.000179 -0.000060 89.793228 -1.359877 -0.847183 90.185997
131 90.185997 -0.000179 -0.000060 89.793228 -1.359877 -0.847183 90.185997
[R_rear_hand01]
130 103.366196 -6.073594 -10.757982 -177.714203 24.565960 -73.910950 104.101845
131 103.366196 -6.073594 -10.757982 -177.714203 24.565960 -73.910950 104.101845
[R_rear_hand02]
130 100.509819 12.039542 -7.992327 -12.874829 36.868488 72.167213 101.543350
131 100.509819 12.039542 -7.992327 -12.874829 36.868488 72.167213 101.543350
[R_rear_hand03]
130 101.539970 5.215704 5.435467 71.484581 -71.816628 21.513813 101.819031
131 101.539970 5.215704 5.435467 71.484581 -71.816628 21.513813 101.819031
[Rope4_Seg01]
130 -0.000191 0.000000 0.000000 36.586479 -1.272479 133.234253 0.000191
131 -0.000193 0.000000 0.000000 36.727428 -1.169514 133.191422 0.000193
[Rope4_Seg02]
130 139.999985 0.000060 0.000119 -25.240061 19.412855 18.460911 139.999985
131 139.999985 0.000060 0.000119 -25.778830 19.274788 18.623661 139.999985
[Rope4_Seg03]
130 139.999924 0.000000 -0.000238 -67.244576 0.707098 18.264706 139.999924
131 139.999924 0.000000 -0.000238 -65.867104 0.221428 18.287519 139.999924
[Rope4_Seg04]
130 139.999985 0.000000 0.000119 -45.216309 -7.081382 16.096737 139.999985
131 139.999985 0.000000 0.000119 -44.832684 -6.774595 16.159323 139.999985
[Rope4_Seg05]
130 139.999802 -0.000060 -0.000119 -31.280046 -17.999994 15.366652 139.999802
131 139.999802 -0.000060 -0.000119 -32.432476 -17.809885 16.168421 139.999802
[Rope4_Seg06]
130 139.999924 0.000000 0.000060 -5.325973 -11.343146 1.227558 139.999924
131 139.999924 0.000000 0.000060 -5.547856 -11.516840 1.392152 139.999924
[Rope4_Seg07]
130 139.999802 0.000000 0.000000 -1.786025 -6.635875 -0.051674 139.999802
131 139.999802 0.000000 0.000000 -1.842719 -6.709361 0.003993 139.999802
[Rope4_Seg08]
130 139.999924 0.000000 0.000119 -2.310945 -3.794591 -0.152747 139.999924
131 139.999924 0.000000 0.000119 -2.330455 -3.828218 -0.127771 139.999924
[Rope4_Seg09]
130 90.185791 0.000060 0.000060 -135.617828 2.228885 0.850567 90.185791
131 90.185791 0.000060 0.000060 -135.617828 2.228885 0.850567 90.185791
[L_rear_hand01]
130 101.696655 -8.392275 -7.654577 -12.874829 -36.868488 107.832764 102.329041
131 101.696655 -8.392275 -7.654577 -12.874829 -36.868488 107.832764 102.329041
[L_rear_hand02]
130 102.726799 -1.568258 5.773216 71.484581 71.816628 158.486160 102.900848
131 102.726799 -1.568258 5.773216 71.484581 71.816628 158.486160 102.900848
[L_rear_hand03]
130 104.552910 9.721220 -10.420293 -177.714203 -24.565960 -106.089035 105.519653
131 104.552910 9.721220 -10.420293 -177.714203 -24.565960 -106.089035 105.519653
